# xmcd CD database file
#
# Track frame offsets:
#	150
#	20010
#	36876
#	53239
#	67976
#	95954
#	115463
#	130207
#	149023
#	175866
#	191319
#	210535
#	248229
#	271210
#	304528
#	324844
#
# Disc length: 4661 seconds
#
# Revision: 1
# Processed by: cddbd v1.5.2PL0 Copyright (c) Steve Scherf et al.
# Submitted via: CDex 1.70beta2
#
DISCID=e9123310
DTITLE=Various Artist - Montecarlo Nights - Nouveau Beat 02 - CD 1
DYEAR=2001
DGENRE=Jazz
TTITLE0=Gabin - La Maison
TTITLE1=Zero 7 - Destiny
TTITLE2=Senor Coconout - Showroom Dummies
TTITLE3=Yasemin Sannino - Birdenbire
TTITLE4=Digby Jones - Pina Colada
TTITLE5=Chakra Lounge - Du Ar
TTITLE6=Cesaria Evora - Tiempo Y Silencio
TTITLE7=Mystic Diversions - Float On
TTITLE8=Vicente Amigo - Bolero De Viciente
TTITLE9=Nitin Sawhney - Sunset
TTITLE10=Sarah Vaughan - Something
TTITLE11=Doctor Rockit - Cafe' De Flore
TTITLE12=Victor Davies - Sound Of The Samba
TTITLE13=Gotan Project Meets Chet Baker - Round About Midnight
TTITLE14=Booster - Summer
TTITLE15=Anne Dudley - Moments In Love
EXTD=YEAR: 2001
EXTT0=
EXTT1=
EXTT2=
EXTT3=
EXTT4=
EXTT5=
EXTT6=
EXTT7=
EXTT8=
EXTT9=
EXTT10=
EXTT11=
EXTT12=
EXTT13=
EXTT14=
EXTT15=
PLAYORDER=
